# xmcd
#
# Track frame offsets:
#	150
#	10954
#	25286
#	36026
#	46430
#	65320
#	75437
#	85299
#	96211
#	111255
#	120892
#	132057
#	144119
#	156248
#	167328
#	179350
#
# Disc length: 2559 seconds
#
# Revision: 0
# Processed by: cddbd v1.4PL0 Copyright (c) Steve Scherf et al.
# Submitted via: audiograbber 1.80
#
DISCID=bc09fd10
DTITLE=Slim Whitman - onbekend
DYEAR=1900
DGENRE=
TTITLE0=Rhinestone cowboy
TTITLE1=Red river valley
TTITLE2=Tumbling tumbleweeds
TTITLE3=Kentucky Waltz
TTITLE4=Home of the range
TTITLE5=I can 't stop loving you
TTITLE6=Cattle Call
TTITLE7=Rose Marie
TTITLE8=Riders in the sky
TTITLE9=From a jack to a King
TTITLE10=Broken wings
TTITLE11=Paper rose
TTITLE12=It keeps right on A-Hurting'
TTITLE13=Wayward wind
TTITLE14=Top of the world
TTITLE15=Cool water
EXTD=
EXTT0=
EXTT1=
EXTT2=
EXTT3=
EXTT4=
EXTT5=
EXTT6=
EXTT7=
EXTT8=
EXTT9=
EXTT10=
EXTT11=
EXTT12=
EXTT13=
EXTT14=
EXTT15=
PLAYORDER=
